<?xml version="1.0" encoding="utf-8"?>
<!-- Generator: Adobe Illustrator 24.1.1, SVG Export Plug-In . SVG Version: 6.00 Build 0)  -->
<svg version="1.1" id="Layer_1" xmlns="http://www.w3.org/2000/svg" xmlns:xlink="http://www.w3.org/1999/xlink" x="0px" y="0px"
	 viewBox="0 0 311.4 311.4" style="enable-background:new 0 0 311.4 311.4;" xml:space="preserve">
<style type="text/css">
	.st0{fill:#61A60E;}
</style>
<g>
	<path class="st0" d="M238.3,128.3c-5.5,25.5-25.8,39-34.6,43.9l33.3,61.3h-51.7l-49.4-91.3l-19.2,91.3h-44l8.6-40.3
		c6.8-32.2,27.9-50.1,54.7-51h36.9c7.4,0,14.7-5.9,16.3-13.3c1.6-7.4-3.2-13.5-10.6-13.5h-36.4l8-37.6l48.3,0
		C229.4,77.8,243.6,103.7,238.3,128.3 M110.2,76.3c11.5,0,20.8,9.3,20.8,20.7c0,11.4-9.3,20.7-20.8,20.7c-11.5,0-20.8-9.3-20.8-20.7
		C89.4,85.5,98.7,76.3,110.2,76.3 M155,0C69.1,0.4-0.4,70.4,0,156.3c0.4,86,70.4,155.4,156.3,155c86-0.4,155.4-70.4,155-156.3
		C311,69.1,241-0.4,155,0"/>
	<path class="st0" d="M296.3,296.3h-2.2l-0.6-8.2c-0.1-1.5-0.1-2.9-0.1-3.6h-0.2c-0.2,0.7-0.3,1.8-0.8,3.6l-2.6,8.2h-2.2l-2.4-7.8
		c-0.7-2.2-0.8-3.4-0.9-4.1h-0.1c0,0.7-0.1,2.3-0.2,3.8l-0.7,8H281l1.3-14.5h3.1l2.5,8.4c0.4,1.4,0.7,2.3,0.7,2.8h0.1
		c0.2-0.7,0.4-1.6,0.8-2.8l2.7-8.4h3.1L296.3,296.3z M269.4,281.8h10.2v2.2h-4v12.3h-2.3V284h-4V281.8z"/>
</g>
</svg>
